<svg xmlns="http://www.w3.org/2000/svg" viewBox="0 0 23.73 22.69">
    <path fill="currentColor" d="M23.23,21.69H22V14.94a.5.5,0,0,0-.31-.47l-.44-.18h0v-.95c1.28-.34,2.22-1.95,2.22-4,0-1.8-.93-6-2.72-6S18,7.57,18,9.37c0,2,.94,3.62,2.22,4v.55L17.1,12.6V.5a.48.48,0,0,0-.2-.4A.5.5,0,0,0,16.46,0L7.9,2.65a.49.49,0,0,0-.36.47V8.56H2.67a.5.5,0,0,0-.5.5V21.69H1a.5.5,0,0,0-.5.5.5.5,0,0,0,.5.5H23.23a.5.5,0,0,0,.5-.5A.5.5,0,0,0,23.23,21.69ZM19,9.37c0-2.17,1.08-5,1.72-5s1.72,2.86,1.72,5a3.34,3.34,0,0,1-1.22,2.88v-.73a.5.5,0,0,0-1,0v.73A3.34,3.34,0,0,1,19,9.37ZM8.54,3.49,16.1,1.18V21.69H14.35V18.44a.5.5,0,0,0-.5-.5H12.79a.5.5,0,0,0-.5.5.51.51,0,0,0,.5.5h.56v2.75H11.6V9.06a.5.5,0,0,0-.5-.5H8.54ZM3.17,9.56H10.6V21.69H8.92V18.44a.5.5,0,0,0-.5-.5H5.36a.5.5,0,0,0-.5.5v3.25H3.17ZM5.86,21.69V18.94H7.92v2.75Zm11.24-8L21,15.27v6.42H17.1Z"/>
    <path fill="currentColor" d="M1.87,7.08H5.31A1.65,1.65,0,0,0,7,5.43,1.63,1.63,0,0,0,6.06,4a2.7,2.7,0,0,0,0-.49,2.6,2.6,0,0,0-5.2,0v.13a1.87,1.87,0,0,0,1,3.47ZM1.6,4.38a.5.5,0,0,0,.33-.57,1.84,1.84,0,0,1,0-.33,1.6,1.6,0,1,1,3.2,0A1.67,1.67,0,0,1,5,4.1a.51.51,0,0,0,0,.45.49.49,0,0,0,.37.24A.65.65,0,0,1,6,5.43a.66.66,0,0,1-.66.65H1.87a.87.87,0,0,1-.27-1.7Z"/>
</svg>