<?xml version="1.0" encoding="utf-8"?>
<!-- Generator: Adobe Illustrator 22.1.0, SVG Export Plug-In . SVG Version: 6.00 Build 0)  -->
<svg version="1.1" id="Calque_1" xmlns="http://www.w3.org/2000/svg" xmlns:xlink="http://www.w3.org/1999/xlink" x="0px" y="0px"
	 viewBox="0 0 512 512" style="enable-background:new 0 0 512 512;" xml:space="preserve">
<path d="M401.4,0H110.6C49.8,0,0,49.8,0,110.6v290.8C0,462.2,49.8,512,110.6,512h290.8c60.8,0,110.6-49.8,110.6-110.6V110.6
	C512,49.8,462.2,0,401.4,0z M232.4,104.7c0-13.1,10.6-23.7,23.6-23.7c13.1,0,23.7,10.6,23.7,23.6c0,0,0,0,0,0v165.7
	c0,13.1-10.6,23.6-23.6,23.6c-13.1,0-23.7-10.6-23.7-23.6L232.4,104.7L232.4,104.7z M377.5,380.6c-67,67.2-175.7,67.3-242.9,0.3
	s-67.3-175.7-0.3-242.9c3-3,6-5.8,9.2-8.6c10-8.3,25-7,33.3,3.1c8.1,9.7,7.1,24.1-2.3,32.6c-51.9,45-57.5,123.7-12.4,175.6
	s123.7,57.5,175.6,12.4s57.5-123.7,12.4-175.6c-4.1-4.7-8.5-9.1-13.2-13.1c-9.9-8.5-11.1-23.4-2.6-33.4c8.5-9.9,23.4-11.1,33.4-2.6
	c72.2,61.6,80.7,170,19.2,242.1C383.8,374.1,380.7,377.5,377.5,380.6L377.5,380.6z"/>
</svg>
