<svg version="1.1" id="Calque_1" xmlns="http://www.w3.org/2000/svg" xmlns:xlink="http://www.w3.org/1999/xlink" x="0px" y="0px" viewBox="0 0 90 90" style="enable-background:new 0 0 90 90;" xml:space="preserve">
	<path fill="currentColor" d="M31,0C17.2,0,6,11.2,6,25s11.2,25,25,25c1.8,0,3.6-0.2,5.3-0.6L6,79.8V69c0-1.6-1.4-3.1-3-3.1c-1.6,0-3,1.5-3,3.1v18
	c0,1.6,1.4,3,3,3h18c1.6,0,3-1.4,3-3s-1.4-3-3-3H10.2L39,55.2l11.2,11.2c0.4,0.9,1.3,1.5,2.3,1.7c1,0.2,2-0.2,2.7-0.9l34-32
	c0.9-0.8,1.2-2.4,0.7-3.4c-0.5-1.1-1.8-1.9-3-1.8c-0.7,0.1-1.3,0.4-1.8,0.8l-31.9,30L41.5,49.3c-0.3-0.4-0.7-0.8-1.3-1
	C49.5,44.5,56,35.5,56,25C56,11.2,44.8,0,31,0z M31,6c10.5,0,19,8.5,19,19s-8.5,19-19,19s-19-8.5-19-19S20.5,6,31,6z M32.7,10
	c-6.4,0-11.8,4.2-13.8,10H16c-1.1,0-2,0.9-2,2c0,1.1,0.9,2,2,2h2c0,0.3,0,0.7,0,1c0,0.3,0,0.7,0,1h-2c-1.1,0-2,0.9-2,2
	c0,1.1,0.9,2,2,2h2.8c2,5.8,7.5,10,13.9,10c4.6,0,7.9-1.8,10.7-4.6c0.8-0.8,0.7-2.1,0-2.8c-0.8-0.8-2.1-0.7-2.8,0
	C38.2,35,36.4,36,32.7,36c-4.2,0-7.8-2.4-9.6-6H32c1.1,0,2-0.9,2-2c0-1.1-0.9-2-2-2h-9.9c0-0.3-0.1-0.7-0.1-1c0-0.3,0-0.7,0.1-1H32
	c1.1,0,2-0.9,2-2c0-1.1-0.9-2-2-2h-8.8c1.8-3.6,5.4-6,9.6-6c3.7,0,5.5,1,7.8,3.4c0.8,0.8,2,0.8,2.8,0c0.8-0.8,0.8-2,0-2.8l0,0
	C40.6,11.8,37.3,10,32.7,10z"/>
</svg>
