<svg xmlns="http://www.w3.org/2000/svg" viewBox="0 0 90 90">
    <path fill="currentColor" d="M51.9 20.9H38.1c-.4 0-.8.4-.8.8v3.5h15.4v-3.5c0-.5-.3-.8-.8-.8z"/>
    <path fill="currentColor" d="M45 0C20.1 0 0 20.1 0 45s20.1 45 45 45 45-20.1 45-45S69.9 0 45 0zm25.3 30.7c0 1.7-1.4 3-3.2 3h-.4v34.7c0 2.8-2.3 5.1-5.1 5.1H28.4c-2.8 0-5.1-2.3-5.1-5.1V33.7h-.4c-1.7 0-3.2-1.4-3.2-3v-2.5c0-1.7 1.4-3 3.2-3h10v-3.5c0-2.9 2.3-5.2 5.2-5.2H52c2.9 0 5.2 2.3 5.2 5.2v3.5h10c1.7 0 3.2 1.4 3.2 3l-.1 2.5z"/>
    <path fill="currentColor" d="M32.2 39.3h4.4v26.4h-4.4zM42.8 39.3h4.4v26.4h-4.4zM53.4 39.3h4.4v26.4h-4.4z"/>
</svg>