<svg version="1.1" id="Calque_1" xmlns="http://www.w3.org/2000/svg" xmlns:xlink="http://www.w3.org/1999/xlink" x="0px" y="0px" viewBox="0 0 90 80.9" style="enable-background:new 0 0 90 80.9;" xml:space="preserve">
	<path fill="currentColor" d="M79.6,53c1.1,0,2-0.9,2-2V27.2l2.7,2.3c0.4,0.3,0.8,0.5,1.3,0.5c0.6,0,1.1-0.2,1.5-0.7c0.7-0.8,0.6-2.1-0.2-2.8l-30.1-26
		c-0.8-0.6-1.9-0.6-2.6,0l-30.1,26c-0.8,0.7-0.9,2-0.2,2.8c0.7,0.8,2,0.9,2.8,0.2l2.7-2.3V48c0,1.1,0.9,2,2,2s2-0.9,2-2V23.7
		L55.5,4.6l22.1,19.1V51C77.6,52.1,78.5,53,79.6,53z"/>
	<path fill="currentColor" d="M55.5,54.7c11.2,0,20.3-9.1,20.3-20.3c0-4.4-1.4-8.6-4.1-12.2c-0.7-0.9-1.9-1.1-2.8-0.4c-0.9,0.7-1.1,1.9-0.4,2.8
		c2.1,2.8,3.3,6.2,3.3,9.8c0,9-7.3,16.3-16.3,16.3c-4,0-7.9-1.5-10.9-4.1c-0.8-0.7-2.1-0.7-2.8,0.2c-0.7,0.8-0.7,2.1,0.2,2.8
		C45.8,52.9,50.6,54.7,55.5,54.7z M68,20.8c0.7-0.9,0.5-2.1-0.4-2.8c-3.5-2.6-7.7-4-12.1-4c-11.2,0-20.3,9.1-20.3,20.3
		c0,3.8,1,7.5,3,10.7c0.4,0.6,1,1,1.7,1c0.4,0,0.7-0.1,1-0.3c0.9-0.6,1.2-1.8,0.7-2.8c-1.6-2.6-2.4-5.5-2.4-8.6
		c0-9,7.3-16.3,16.3-16.3c3.5,0,6.9,1.1,9.7,3.2C66.1,21.9,67.4,21.7,68,20.8z"/>
	<path fill="currentColor" d="M4.7,79h17.1c2.6,0,4.7-2.1,4.7-4.7v0l16.4,5.4c2.4,0.8,5,1.2,7.5,1.2c3.5,0,7-0.8,10.2-2.3l25.6-12.5
		c1.6-0.8,2.8-2.1,3.4-3.8c0.6-1.7,0.5-3.5-0.3-5.1c-1.6-3.3-5.6-4.6-8.8-3l-14.6,7.1c-0.7-3-3.4-5.2-6.6-5.2H49l-3.6-1.9
		c-3.4-1.8-7.3-2.8-11.2-2.8h-7.6v-0.1c0-2.6-2.1-4.7-4.7-4.7H4.7c-2.6,0-4.7,2.1-4.7,4.7v23.1C0,76.9,2.1,79,4.7,79z M4,51.2
		c0-0.4,0.3-0.7,0.7-0.7h17.1c0.4,0,0.7,0.3,0.7,0.7v12c0,1.1,0.9,2,2,2s2-0.9,2-2v-7.9h7.6c3.2,0,6.5,0.8,9.3,2.3l4.1,2.2
		c0,0,0,0,0.1,0c0.1,0,0.2,0.1,0.3,0.1c0.1,0,0.1,0,0.2,0c0.1,0,0.2,0,0.3,0c0,0,0.1,0,0.1,0c0,0,0,0,0,0h10.7c1.6,0,2.8,1.3,2.8,2.8
		c0,1.6-1.3,2.8-2.8,2.8h-15c-1.1,0-2,0.9-2,2s0.9,2,2,2h15c2.6,0,4.9-1.5,6.1-3.7l17-8.3c1.3-0.6,2.9-0.1,3.5,1.2
		c0.3,0.6,0.4,1.3,0.1,2c-0.2,0.7-0.7,1.2-1.3,1.5L58.9,75c-4.6,2.2-9.9,2.5-14.7,0.9l-17.6-5.8v-1.4c0-1.1-0.9-2-2-2s-2,0.9-2,2v5.7
		c0,0.4-0.3,0.7-0.7,0.7H4.7C4.3,75,4,74.7,4,74.3V51.2z M42.3,37.3c0,1.4,1.1,2.5,2.5,2.5h2.3c1.5,4.9,4.9,8.2,9,8.2
		c3,0,5.8-1.9,7.7-5.1c0.7-1.2,0.3-2.7-0.9-3.4c-1.2-0.7-2.7-0.3-3.4,0.9c-0.9,1.6-2.1,2.6-3.3,2.6c-1.3,0-2.7-1.2-3.7-3.2h2.4
		c1.4,0,2.5-1.1,2.5-2.5s-1.1-2.5-2.5-2.5h-3.5c0-0.1,0-0.3,0-0.4s0-0.3,0-0.4h3.5c1.4,0,2.5-1.1,2.5-2.5c0-1.4-1.1-2.5-2.5-2.5h-2.4
		c0.9-2,2.4-3.2,3.7-3.2c1.2,0,2.4,0.9,3.3,2.6c0.7,1.2,2.2,1.6,3.4,0.9c1.2-0.7,1.6-2.2,0.9-3.4c-1.8-3.2-4.6-5.1-7.7-5.1
		c-4.1,0-7.5,3.3-9,8.2h-2.3c-1.4,0-2.5,1.1-2.5,2.5c0,1.4,1.1,2.5,2.5,2.5h1.6c0,0.1,0,0.3,0,0.4s0,0.3,0,0.4h-1.6
		C43.4,34.8,42.3,35.9,42.3,37.3z"/>
</svg>
