<svg version="1.1" id="Calque_1" xmlns="http://www.w3.org/2000/svg" xmlns:xlink="http://www.w3.org/1999/xlink" x="0px" y="0px" viewBox="0 0 40 56" style="enable-background:new 0 0 40 56;" xml:space="preserve">
	<path fill="currentColor" d="M3,56h34c1.7,0,3-1.3,3-3V3c0-1.7-1.3-3-3-3H3C1.3,0,0,1.3,0,3v50C0,54.7,1.3,56,3,56z M23,2v1h-6V2H23z M28.1,46.8v-2.9
		h3.2L28.1,46.8z M33,41.9h-5.9c-0.6,0-1,0.4-1,1V48H7V7h4v2c0,0.6,0.4,1,1,1h4.8c0.2,0,0.5-0.1,0.6-0.2c1.5-1,3.5-1,5.1,0
		c0.2,0.1,0.4,0.2,0.6,0.2H28c0.6,0,1-0.4,1-1V7h4V41.9z M27,8h-3.5c-2.1-1.3-4.9-1.3-7,0H13V5h14V8z M2,3c0-0.6,0.4-1,1-1h12v1h-3
		c-0.6,0-1,0.4-1,1v1H6C5.4,5,5,5.4,5,6v43c0,0.6,0.4,1,1,1h21.1c0.2,0,0.5-0.1,0.7-0.3l5.1-4.6l1.7-1.5l0,0c0.1-0.1,0.2-0.2,0.2-0.3
		c0,0,0-0.1,0-0.1c0.1-0.1,0.1-0.2,0.1-0.3c0,0,0,0,0-0.1V6c0-0.6-0.4-1-1-1h-5V4c0-0.6-0.4-1-1-1h-3V2h12c0.6,0,1,0.4,1,1v50
		c0,0.6-0.4,1-1,1H3c-0.6,0-1-0.4-1-1V3z"/>
	<path fill="currentColor" d="M26,21.6V19c0-0.6-0.4-1-1-1s-1,0.4-1,1v1l-3.5-2.8c-0.4-0.3-0.9-0.3-1.3,0l-7.9,6.6c-0.4,0.4-0.5,1-0.1,1.4
		c0.1,0.1,0.3,0.2,0.4,0.3l1.5,0.5V31c0,0.6,0.4,1,1,1h11.6c0.6,0,1-0.4,1-1v-5l1.5-0.5c0.5-0.2,0.8-0.7,0.6-1.3
		c-0.1-0.2-0.2-0.3-0.3-0.5L26,21.6z M25.5,24.3c-0.4,0.1-0.7,0.5-0.7,1v4.8h-9.6v-4.8c0-0.4-0.3-0.8-0.7-1L14,24.2l5.9-4.9l6,4.9
		L25.5,24.3z"/>
</svg>
