<svg version="1.1" id="Calque_1" xmlns="http://www.w3.org/2000/svg" xmlns:xlink="http://www.w3.org/1999/xlink" x="0px" y="0px" viewBox="0 0 48 64" style="enable-background:new 0 0 48 64;" xml:space="preserve">
	<path fill="currentColor" d="M14.6,27.1c5.1,0,9.1-4.1,9.1-9.1h-9.1V8.8c-5.1,0-9.1,4.1-9.1,9.1S9.6,27.1,14.6,27.1z M13.2,10.3V18v1.4h1.4h7.6
		c-0.7,3.6-3.8,6.3-7.6,6.3c-4.3,0-7.7-3.5-7.7-7.7C6.9,14.2,9.6,11,13.2,10.3z"/>
	<path fill="currentColor" d="M15.6,7.8V17h9.1C24.8,11.9,20.7,7.8,15.6,7.8z M17,9.4c3.2,0.6,5.6,3.1,6.2,6.2H17V9.4z M7.2,39.2c0,2.4,1.9,4.3,4.3,4.3
		s4.3-1.9,4.3-4.3h-4.3v-4.3C9.1,34.9,7.2,36.8,7.2,39.2z"/>
	<path fill="currentColor" d="M12.4,34v4.3h4.3C16.7,36,14.8,34,12.4,34z M11.5,46c-2.4,0-4.3,1.9-4.3,4.3s1.9,4.3,4.3,4.3s4.3-1.9,4.3-4.3h-4.3V46z"/>
	<path fill="currentColor" d="M12.4,45.2v4.3h4.3C16.7,47.1,14.8,45.2,12.4,45.2z M19.9,36.7h20.9v1.4H19.9V36.7z M19.9,40.2h20.9v1.4H19.9V40.2z
		 M19.9,47.4h20.9v1.4H19.9V47.4z M19.9,50.9h20.9v1.4H19.9V50.9z M28,22.3h1.4v3.2H28V22.3z M30.8,14.8h1.4v10.7h-1.4V14.8z
		 M33.6,9.4H35v16.1h-1.4V9.4z M36.5,14.5h1.4v11h-1.4V14.5z M39.3,19.7h1.4v5.8h-1.4V19.7z"/>
	<path fill="currentColor" d="M4.8,64h38.5c2.6,0,4.8-2.1,4.8-4.8V4.8C48,2.1,45.9,0,43.2,0H4.8C2.1,0,0,2.1,0,4.8v54.5C0,61.9,2.1,64,4.8,64z M1.4,4.8
		c0-1.9,1.5-3.4,3.4-3.4h38.5c1.9,0,3.4,1.5,3.4,3.4v54.5c0,1.9-1.5,3.4-3.4,3.4H4.8c-1.9,0-3.4-1.5-3.4-3.4V4.8z"/>
</svg>
