<svg xmlns="http://www.w3.org/2000/svg" viewBox="0 0 64 80" x="0px" y="0px"><title>project property, web, website, business, internet, page copy</title><g><path d="M15,60H49a3,3,0,0,0,3-3V7a3,3,0,0,0-3-3H15a3,3,0,0,0-3,3V57A3,3,0,0,0,15,60ZM35,6V7H29V6Zm5.13,44.77V47.89h3.24ZM45,45.89H39.13a1,1,0,0,0-1,1V52H19V11h4v2a1,1,0,0,0,1,1h4.82a1,1,0,0,0,.64-.23,4.57,4.57,0,0,1,5.08,0,1,1,0,0,0,.64.23H40a1,1,0,0,0,1-1V11h4ZM39,12H35.52a6.7,6.7,0,0,0-7,0H25V9H39ZM14,7a1,1,0,0,1,1-1H27V7H24a1,1,0,0,0-1,1V9H18a1,1,0,0,0-1,1V53a1,1,0,0,0,1,1H39.13a1,1,0,0,0,.66-.25l5.14-4.57,1.73-1.54v0a.94.94,0,0,0,.21-.28.93.93,0,0,1,0-.1A1.5,1.5,0,0,0,47,47s0,0,0-.06V10a1,1,0,0,0-1-1H41V8a1,1,0,0,0-1-1H37V6H49a1,1,0,0,1,1,1V57a1,1,0,0,1-1,1H15a1,1,0,0,1-1-1Z"/><path d="M38,25.64V23a1,1,0,0,0-2,0v1l-3.47-2.81a1,1,0,0,0-1.27,0l-7.9,6.55a1,1,0,0,0,.32,1.71l1.5.5v5.1a1,1,0,0,0,1,1H37.82a1,1,0,0,0,1-1V30l1.5-.5a1,1,0,0,0,.31-1.72Zm-.5,2.68a1,1,0,0,0-.68.95v4.82H27.18V29.27a1,1,0,0,0-.68-.95L26,28.17l5.89-4.88,6,4.88Z"/></g><text x="0" y="79" fill="#000000" font-size="5px" font-weight="bold" font-family="'Helvetica Neue', Helvetica, Arial-Unicode, Arial, Sans-serif">Created by LUTFI GANI AL ACHMAD</text><text x="0" y="84" fill="#000000" font-size="5px" font-weight="bold" font-family="'Helvetica Neue', Helvetica, Arial-Unicode, Arial, Sans-serif">from the Noun Project</text></svg>