<svg xmlns="http://www.w3.org/2000/svg" xmlns:xlink="http://www.w3.org/1999/xlink" version="1.1" x="0px" y="0px" viewBox="0 0 64 80" enable-background="new 0 0 64 64" xml:space="preserve"><g display="none"><rect x="-176.076" y="-28.113" display="inline" fill="#000000" width="824.576" height="414.113"/></g><g display="none"><circle display="inline" fill="#000000" cx="32" cy="32.005" r="32"/><polyline display="inline" fill="#000000" points="50.701,51.175 50.701,11.063 16.724,11.063 16.724,56.366 45.51,56.366    45.51,56.366 50.701,51.175  "/><polygon display="inline" fill="#000000" points="43.806,54.667 15,54.667 15,9.333 49,9.333 49,49.472  "/><path display="inline" fill="#000000" d="M25.362,17.109c-3.579,0-6.48,2.901-6.48,6.48c0,3.579,2.901,6.48,6.48,6.48   s6.48-2.901,6.48-6.48h-6.48V17.109z"/><path display="inline" fill="#000000" d="M26.054,16.417v6.48h6.48C32.533,19.318,29.632,16.417,26.054,16.417z"/><path display="inline" fill="#000000" d="M23.154,34.068c-1.672,0-3.028,1.356-3.028,3.028c0,1.672,1.356,3.028,3.028,3.028   c1.672,0,3.028-1.356,3.028-3.028h-3.028V34.068z"/><path display="inline" fill="#000000" stroke="#FFFFFF" stroke-width="0.3" stroke-miterlimit="10" d="M23.477,33.744v3.028h3.028   C26.506,35.1,25.15,33.744,23.477,33.744z"/><path display="inline" fill="#000000" d="M23.154,41.942c-1.672,0-3.028,1.356-3.028,3.028c0,1.672,1.356,3.028,3.028,3.028   c1.672,0,3.028-1.356,3.028-3.028h-3.028V41.942z"/><path display="inline" fill="#000000" stroke="#FFFFFF" stroke-width="0.3" stroke-miterlimit="10" d="M23.477,41.619v3.028h3.028   C26.506,42.975,25.15,41.619,23.477,41.619z"/><line display="inline" fill="#000000" stroke="#DB2B42" stroke-miterlimit="10" x1="35.326" y1="26.738" x2="35.326" y2="29.017"/><line display="inline" fill="#000000" stroke="#8AD5DD" stroke-miterlimit="10" x1="37.326" y1="21.445" x2="37.326" y2="29.017"/><line display="inline" fill="#000000" stroke="#DB2B42" stroke-miterlimit="10" x1="39.326" y1="17.598" x2="39.326" y2="29.017"/><line display="inline" fill="#000000" stroke="#8AD5DD" stroke-miterlimit="10" x1="41.325" y1="21.204" x2="41.325" y2="29.017"/><line display="inline" fill="#000000" stroke="#DB2B42" stroke-miterlimit="10" x1="43.325" y1="24.881" x2="43.325" y2="29.017"/><line display="inline" fill="#000000" stroke="#E0E0E0" stroke-miterlimit="10" x1="29.079" y1="35.839" x2="43.874" y2="35.839"/><line display="inline" fill="#000000" stroke="#E0E0E0" stroke-miterlimit="10" x1="29.079" y1="38.324" x2="43.874" y2="38.324"/><line display="inline" fill="#000000" stroke="#E0E0E0" stroke-miterlimit="10" x1="29.079" y1="43.426" x2="43.874" y2="43.426"/><line display="inline" fill="#000000" stroke="#E0E0E0" stroke-miterlimit="10" x1="29.079" y1="45.91" x2="43.874" y2="45.91"/><polygon display="inline" fill="#000000" points="43.806,54.667 43.806,49.472 49,49.472  "/></g><g display="none"><circle display="inline" fill="#000000" cx="32" cy="32.005" r="32"/><polyline display="inline" points="50.701,51.175 50.701,11.063 16.724,11.063 16.724,56.366 45.51,56.366 45.51,56.366    50.701,51.175  "/><polygon display="inline" fill="#000000" points="43.806,54.667 15,54.667 15,9.333 49,9.333 49,49.472  "/><path display="inline" fill="#000000" d="M25.362,17.109c-3.579,0-6.48,2.901-6.48,6.48c0,3.579,2.901,6.48,6.48,6.48   s6.48-2.901,6.48-6.48h-6.48V17.109z"/><path display="inline" d="M26.054,16.417v6.48h6.48C32.533,19.318,29.632,16.417,26.054,16.417z"/><path display="inline" fill="#000000" d="M23.154,34.068c-1.672,0-3.028,1.356-3.028,3.028c0,1.672,1.356,3.028,3.028,3.028   c1.672,0,3.028-1.356,3.028-3.028h-3.028V34.068z"/><path display="inline" stroke="#FFFFFF" stroke-width="0.3" stroke-miterlimit="10" d="M23.477,33.744v3.028h3.028   C26.506,35.1,25.15,33.744,23.477,33.744z" fill="#000000"/><path display="inline" fill="#000000" d="M23.154,41.942c-1.672,0-3.028,1.356-3.028,3.028c0,1.672,1.356,3.028,3.028,3.028   c1.672,0,3.028-1.356,3.028-3.028h-3.028V41.942z"/><path display="inline" stroke="#FFFFFF" stroke-width="0.3" stroke-miterlimit="10" d="M23.477,41.619v3.028h3.028   C26.506,42.975,25.15,41.619,23.477,41.619z" fill="#000000"/><line display="inline" fill="none" stroke="#000000" stroke-miterlimit="10" x1="35.326" y1="26.738" x2="35.326" y2="29.017"/><line display="inline" fill="#000000" stroke="#8AD5DD" stroke-miterlimit="10" x1="37.326" y1="21.445" x2="37.326" y2="29.017"/><line display="inline" fill="none" stroke="#000000" stroke-miterlimit="10" x1="39.326" y1="17.598" x2="39.326" y2="29.017"/><line display="inline" fill="#000000" stroke="#8AD5DD" stroke-miterlimit="10" x1="41.325" y1="21.204" x2="41.325" y2="29.017"/><line display="inline" fill="none" stroke="#000000" stroke-miterlimit="10" x1="43.325" y1="24.881" x2="43.325" y2="29.017"/><line display="inline" fill="#000000" stroke="#E0E0E0" stroke-miterlimit="10" x1="29.079" y1="35.839" x2="43.874" y2="35.839"/><line display="inline" fill="#000000" stroke="#E0E0E0" stroke-miterlimit="10" x1="29.079" y1="38.324" x2="43.874" y2="38.324"/><line display="inline" fill="#000000" stroke="#E0E0E0" stroke-miterlimit="10" x1="29.079" y1="43.426" x2="43.874" y2="43.426"/><line display="inline" fill="#000000" stroke="#E0E0E0" stroke-miterlimit="10" x1="29.079" y1="45.91" x2="43.874" y2="45.91"/><polygon display="inline" fill="#000000" points="43.806,54.667 43.806,49.472 49,49.472  "/></g><g display="none"><polygon display="inline" fill="#000000" points="37.053,64 -3.614,64 -3.614,0 44.386,0 44.386,56.667  "/><path display="inline" fill="#000000" d="M7.898,34.919c-2.361,0-4.275,1.914-4.275,4.275c0,2.361,1.914,4.275,4.275,4.275   s4.275-1.914,4.275-4.275H7.898V34.919z"/><path display="inline" d="M8.566,34.68v3.845h3.845C12.305,36.453,10.638,34.786,8.566,34.68z"/><path display="inline" fill="#000000" d="M7.898,46.036c-2.361,0-4.275,1.914-4.275,4.275c0,2.361,1.914,4.275,4.275,4.275   s4.275-1.914,4.275-4.275H7.898V46.036z"/><path display="inline" d="M8.566,45.798v3.845h3.845C12.305,47.571,10.638,45.904,8.566,45.798z"/><path display="inline" fill="#000000" d="M11.015,9.394c-5.052,0-9.148,4.096-9.148,9.148c0,5.052,4.096,9.148,9.148,9.148   s9.148-4.096,9.148-9.148h-9.148V9.394z"/><path display="inline" d="M11.992,8.417v9.148h9.148C21.139,12.513,17.044,8.417,11.992,8.417z"/><rect x="24.377" y="22.988" display="inline" fill="#000000" width="1.412" height="3.217"/><rect x="27.199" y="15.516" display="inline" width="1.412" height="10.69"/><rect x="30.023" y="10.085" display="inline" fill="#000000" width="1.412" height="16.121"/><rect x="32.846" y="15.175" display="inline" width="1.412" height="11.03"/><rect x="35.668" y="20.367" display="inline" fill="#000000" width="1.412" height="5.839"/><rect x="16.263" y="36.715" display="inline" fill="#000000" width="20.887" height="1.412"/><rect x="16.263" y="40.222" display="inline" fill="#000000" width="20.887" height="1.412"/><rect x="16.263" y="47.425" display="inline" fill="#000000" width="20.887" height="1.412"/><rect x="16.263" y="50.932" display="inline" fill="#000000" width="20.887" height="1.412"/><polygon display="inline" fill="#000000" points="37.053,64 37.053,56.667 44.386,56.667  "/></g><g display="none"><g display="inline"><path d="M21.228,10.334v7.621v1.4h1.4h7.621c-0.661,3.606-3.827,6.348-7.621,6.348c-4.272,0-7.748-3.476-7.748-7.748    C14.881,14.161,17.622,10.995,21.228,10.334 M22.628,8.807c-5.052,0-9.148,4.096-9.148,9.148c0,5.052,4.096,9.148,9.148,9.148    s9.148-4.096,9.148-9.148h-9.148V8.807L22.628,8.807z"/></g><g display="inline"><path d="M25.005,9.357c3.152,0.578,5.643,3.069,6.221,6.221h-6.221V9.357 M23.605,7.83v9.148h9.148    C32.753,11.926,28.657,7.83,23.605,7.83L23.605,7.83z"/></g><g display="inline"><path d="M54.6,1.4v54.687L48.087,62.6H9.4V1.4H54.6 M56,0H8v64h40.667L56,56.667V0L56,0z"/></g><polyline display="inline" fill="none" stroke="#000000" stroke-width="1.4" stroke-miterlimit="10" points="48.179,63.512    48.179,56.179 55.512,56.179  "/><g display="inline"><path d="M19.512,34.919c-2.361,0-4.275,1.914-4.275,4.275c0,2.361,1.914,4.275,4.275,4.275s4.275-1.914,4.275-4.275h-4.275V34.919    z"/></g><g display="inline"><path d="M20.393,34.037v4.275h4.275C24.668,35.951,22.754,34.037,20.393,34.037z"/></g><g display="inline"><path d="M19.512,46.036c-2.361,0-4.275,1.914-4.275,4.275c0,2.361,1.914,4.275,4.275,4.275s4.275-1.914,4.275-4.275h-4.275V46.036    z"/></g><g display="inline"><path d="M20.393,45.155v4.275h4.275C24.668,47.069,22.754,45.155,20.393,45.155z"/></g><line display="inline" fill="none" stroke="#000000" stroke-width="1.4" stroke-miterlimit="10" x1="27.876" y1="37.42" x2="48.764" y2="37.42"/><line display="inline" fill="none" stroke="#000000" stroke-width="1.4" stroke-miterlimit="10" x1="27.876" y1="40.928" x2="48.764" y2="40.928"/><line display="inline" fill="none" stroke="#000000" stroke-width="1.4" stroke-miterlimit="10" x1="27.876" y1="48.13" x2="48.764" y2="48.13"/><line display="inline" fill="none" stroke="#000000" stroke-width="1.4" stroke-miterlimit="10" x1="27.876" y1="51.638" x2="48.764" y2="51.638"/><line display="inline" fill="none" stroke="#000000" stroke-width="1.4" stroke-miterlimit="10" x1="36.696" y1="22.312" x2="36.696" y2="25.529"/><line display="inline" fill="none" stroke="#000000" stroke-width="1.4" stroke-miterlimit="10" x1="39.519" y1="14.84" x2="39.519" y2="25.529"/><line display="inline" fill="none" stroke="#000000" stroke-width="1.4" stroke-miterlimit="10" x1="42.342" y1="9.409" x2="42.342" y2="25.529"/><line display="inline" fill="none" stroke="#000000" stroke-width="1.4" stroke-miterlimit="10" x1="45.165" y1="14.499" x2="45.165" y2="25.529"/><line display="inline" fill="none" stroke="#000000" stroke-width="1.4" stroke-miterlimit="10" x1="47.988" y1="19.691" x2="47.988" y2="25.529"/></g><g><path d="M22.628,27.102c5.052,0,9.148-4.096,9.148-9.148h-9.148V8.807c-5.052,0-9.148,4.096-9.148,9.148   S17.576,27.102,22.628,27.102z M21.228,10.334v7.621v1.4h1.4h7.621c-0.661,3.606-3.827,6.348-7.621,6.348   c-4.272,0-7.748-3.476-7.748-7.748C14.881,14.161,17.622,10.995,21.228,10.334z"/><path d="M23.605,7.83v9.148h9.148C32.753,11.926,28.657,7.83,23.605,7.83z M25.005,9.357c3.152,0.578,5.643,3.069,6.221,6.221   h-6.221V9.357z"/><path d="M15.236,39.194c0,2.361,1.914,4.275,4.275,4.275c2.361,0,4.275-1.914,4.275-4.275h-4.275v-4.275   C17.15,34.919,15.236,36.833,15.236,39.194z"/><path d="M20.393,34.037v4.275h4.275C24.668,35.951,22.754,34.037,20.393,34.037z"/><path d="M19.512,46.036c-2.361,0-4.275,1.914-4.275,4.275c0,2.361,1.914,4.275,4.275,4.275c2.361,0,4.275-1.914,4.275-4.275h-4.275   V46.036z"/><path d="M20.393,45.155v4.275h4.275C24.668,47.069,22.754,45.155,20.393,45.155z"/><rect x="27.876" y="36.721" width="20.888" height="1.4"/><rect x="27.876" y="40.229" width="20.888" height="1.4"/><rect x="27.876" y="47.43" width="20.888" height="1.4"/><rect x="27.876" y="50.938" width="20.888" height="1.4"/><rect x="35.996" y="22.312" width="1.4" height="3.217"/><rect x="38.818" y="14.84" width="1.4" height="10.689"/><rect x="41.642" y="9.409" width="1.4" height="16.121"/><rect x="44.465" y="14.5" width="1.4" height="11.03"/><rect x="47.288" y="19.691" width="1.4" height="5.838"/><path d="M12.769,64h38.462C53.865,64,56,61.865,56,59.231V4.769C56,2.135,53.865,0,51.231,0H12.769C10.135,0,8,2.135,8,4.769   v54.462C8,61.865,10.135,64,12.769,64z M9.4,4.769c0-1.858,1.511-3.369,3.369-3.369h38.462c1.858,0,3.369,1.511,3.369,3.369v54.462   c0,1.858-1.511,3.369-3.369,3.369H12.769c-1.858,0-3.369-1.511-3.369-3.369V4.769z"/></g><g display="none"><path display="inline" d="M22.628,27.102c5.052,0,9.148-4.096,9.148-9.148h-9.148V8.807c-5.052,0-9.148,4.096-9.148,9.148   S17.576,27.102,22.628,27.102z M21.228,10.334v7.621v1.4h1.4h7.621c-0.661,3.606-3.827,6.348-7.621,6.348   c-4.272,0-7.748-3.476-7.748-7.748C14.881,14.161,17.622,10.995,21.228,10.334z"/><path display="inline" d="M23.605,7.83v9.148h9.148C32.753,11.926,28.657,7.83,23.605,7.83z M25.005,9.357   c3.152,0.578,5.643,3.069,6.221,6.221h-6.221V9.357z"/><path display="inline" d="M15.236,39.194c0,2.361,1.914,4.275,4.275,4.275c2.361,0,4.275-1.914,4.275-4.275h-4.275v-4.275   C17.15,34.919,15.236,36.833,15.236,39.194z"/><path display="inline" d="M20.393,34.037v4.275h4.275C24.668,35.951,22.754,34.037,20.393,34.037z"/><path display="inline" d="M19.512,46.036c-2.361,0-4.275,1.914-4.275,4.275c0,2.361,1.914,4.275,4.275,4.275   c2.361,0,4.275-1.914,4.275-4.275h-4.275V46.036z"/><path display="inline" d="M20.393,45.155v4.275h4.275C24.668,47.069,22.754,45.155,20.393,45.155z"/><rect x="27.876" y="36.721" display="inline" width="20.888" height="1.4"/><rect x="27.876" y="40.229" display="inline" width="20.888" height="1.4"/><rect x="27.876" y="47.43" display="inline" width="20.888" height="1.4"/><rect x="27.876" y="50.938" display="inline" width="20.888" height="1.4"/><rect x="35.996" y="22.312" display="inline" width="1.4" height="3.217"/><rect x="38.818" y="14.84" display="inline" width="1.4" height="10.689"/><rect x="41.642" y="9.409" display="inline" width="1.4" height="16.121"/><rect x="44.465" y="14.5" display="inline" width="1.4" height="11.03"/><rect x="47.288" y="19.691" display="inline" width="1.4" height="5.838"/><path display="inline" d="M56,0H8v64h48V0z M54.6,62.6H9.4V1.4h45.2V62.6z"/></g><g display="none"><g display="inline"><polygon fill="#000000" stroke="#222020" stroke-miterlimit="10" points="48.535,63.75 8.189,63.75 8.189,0.25 55.811,0.25     55.811,56.474   "/><polyline fill="#000000" stroke="#222020" stroke-miterlimit="10" points="48.433,63.648 48.433,56.372 55.708,56.372   "/></g><g display="inline"><path fill="#000000" d="M21.628,9.868v8.087v1h1h8.087c-0.494,4.023-3.932,7.148-8.087,7.148c-4.493,0-8.148-3.655-8.148-8.148    C14.481,13.801,17.606,10.362,21.628,9.868 M22.628,8.807c-5.052,0-9.148,4.096-9.148,9.148c0,5.052,4.096,9.148,9.148,9.148    s9.148-4.096,9.148-9.148h-9.148V8.807L22.628,8.807z"/></g><g display="inline"><path fill="#000000" d="M24.605,8.891c3.695,0.454,6.633,3.391,7.087,7.087h-7.087V8.891 M23.605,7.83v9.148h9.148    C32.753,11.926,28.657,7.83,23.605,7.83L23.605,7.83z"/></g><g display="inline"><path fill="#000000" d="M18.512,36.075v3.119v1h1h3.119c-0.424,1.318-1.662,2.275-3.119,2.275c-1.806,0-3.275-1.469-3.275-3.275    C16.236,37.737,17.193,36.499,18.512,36.075 M19.512,34.919c-2.361,0-4.275,1.914-4.275,4.275c0,2.361,1.914,4.275,4.275,4.275    s4.275-1.914,4.275-4.275h-4.275V34.919L19.512,34.919z"/></g><g display="inline"><path fill="#000000" d="M21.393,35.193c1.003,0.322,1.797,1.116,2.119,2.119h-2.119V35.193 M20.393,34.037v4.275h4.275    C24.668,35.951,22.754,34.037,20.393,34.037L20.393,34.037z"/></g><g display="inline"><path fill="#000000" d="M18.512,47.192v3.119v1h1h3.119c-0.424,1.318-1.662,2.275-3.119,2.275c-1.806,0-3.275-1.469-3.275-3.275    C16.236,48.854,17.193,47.616,18.512,47.192 M19.512,46.036c-2.361,0-4.275,1.914-4.275,4.275c0,2.361,1.914,4.275,4.275,4.275    s4.275-1.914,4.275-4.275h-4.275V46.036L19.512,46.036z"/></g><g display="inline"><path fill="#000000" d="M21.393,46.311c1.003,0.322,1.797,1.116,2.119,2.119h-2.119V46.311 M20.393,45.155v4.275h4.275    C24.668,47.069,22.754,45.155,20.393,45.155L20.393,45.155z"/></g><line display="inline" fill="#000000" stroke="#222020" stroke-miterlimit="10" x1="27.876" y1="37.42" x2="48.764" y2="37.42"/><line display="inline" fill="#000000" stroke="#222020" stroke-miterlimit="10" x1="27.876" y1="40.928" x2="48.764" y2="40.928"/><line display="inline" fill="#000000" stroke="#222020" stroke-miterlimit="10" x1="27.876" y1="48.13" x2="48.764" y2="48.13"/><line display="inline" fill="#000000" stroke="#222020" stroke-miterlimit="10" x1="27.876" y1="51.638" x2="48.764" y2="51.638"/><line display="inline" fill="#000000" stroke="#222020" stroke-miterlimit="10" x1="36.696" y1="22.312" x2="36.696" y2="25.529"/><line display="inline" fill="#000000" stroke="#222020" stroke-miterlimit="10" x1="39.519" y1="14.84" x2="39.519" y2="25.529"/><line display="inline" fill="#000000" stroke="#222020" stroke-miterlimit="10" x1="42.342" y1="9.409" x2="42.342" y2="25.529"/><line display="inline" fill="#000000" stroke="#222020" stroke-miterlimit="10" x1="45.165" y1="14.499" x2="45.165" y2="25.529"/><line display="inline" fill="#000000" stroke="#222020" stroke-miterlimit="10" x1="47.988" y1="19.691" x2="47.988" y2="25.529"/></g><g display="none"><g display="inline"><g><g><g><path fill="#000000" d="M48.248,62.932c-7.161,0-14.322,0-21.483,0c-4.557,0-9.115,0-13.672,0c-1.342,0-2.687,0.023-4.03,0       c-1.307-0.022-0.027,0.617-0.116,0.155c-0.387-2.017,0-4.502,0-6.544c0-4.154,0-8.309,0-12.463c0-10.002,0-20.003,0-30.005       c0-3.537,0-7.073,0-10.61c0-0.821,0.053-1.661,0-2.481C8.883-0.017,7.772,1.136,8.582,1.068c7.601-0.641,15.533,0,23.157,0       c4.823,0,9.645,0,14.468,0c2.571,0,6.191-0.678,8.69,0c0.83,0.225-0.317-0.96-0.239-0.012c0.078,0.941,0,1.927,0,2.871       c0,3.703,0,7.405,0,11.108c0,10.979,0,21.957,0,32.936c0,2.258,0.726,5.957,0,8.131c-0.611,1.829-5.238,5.305-7.081,7.148       c-0.64,0.64,0.753,0.894,1.214,0.433c2.555-2.556,6.772-5.169,7.335-8.74c0.886-5.619,0-12.106,0-17.784       c0-12.226,0-24.452,0-36.679c0-0.377-0.35-0.48-0.671-0.48C39.73,0,24.003,0,8.277,0C7.991,0,7.479,0.247,7.479,0.588       c0,20.977,0,41.955,0,62.932c0,0.377,0.35,0.48,0.671,0.48c13.324,0,26.648,0,39.972,0C48.951,64,49.232,62.932,48.248,62.932z       "/></g></g><g><g><path fill="#000000" d="M48.819,63.313c0-2.404,0-4.807,0-7.211c-0.265,0.198-0.531,0.396-0.796,0.595c2.403,0,4.805,0,7.208,0       c0.836,0,1.105-1.086,0.122-1.086c-2.403,0-4.805,0-7.208,0c-0.29,0-0.796,0.25-0.796,0.595c0,2.404,0,4.807,0,7.211       C47.349,64.187,48.819,63.982,48.819,63.313L48.819,63.313z"/></g></g></g><g><g><path fill="#000000" d="M22.821,8.682c-8.31,0.448-14.173,10.591-6.694,16.682c6.354,5.175,15.757,0.354,16.179-7.477      c0.008-0.149-0.354-0.139-0.422-0.139c-1.567,0-8.342,0.625-8.816,0.033c-0.097-0.122,0.175-3.803,0.175-4.427      c0-1.511,0-3.022,0-4.533c0-0.308-1.449-0.08-1.449,0.388c0,3.022,0,6.044,0,9.066c0,0.151,0.347,0.139,0.422,0.139      c1.865,0,3.731,0,5.596,0c0.706,0,2.213-0.294,2.861,0c0.924,0.419,1.143-1.845-0.018,1.727      c-0.247,0.761-0.44,1.495-0.813,2.215c-3.231,6.235-12.074,5.193-14.855-0.725c-2.515-5.353,1.066-11.951,7.229-12.283      C22.653,9.324,23.78,8.63,22.821,8.682z"/></g></g><g><g><path fill="#000000" d="M22.762,8.241c0,3.022,0,6.044,0,9.066c0,0.152,0.346,0.141,0.422,0.141c3.021,0,6.042,0,9.063,0      c0.265,0,1.037-0.156,1.027-0.529c-0.139-5.162-4.207-9.065-9.327-9.203c-0.357-0.01-1.661,0.643-0.921,0.662      c4.952,0.134,8.666,4.022,8.799,8.929c0.342-0.176,0.684-0.353,1.027-0.529c-3.021,0-6.042,0-9.063,0      c0.141,0.047,0.282,0.094,0.422,0.141c0-3.022,0-6.044,0-9.066C24.211,7.541,22.762,7.77,22.762,8.241z"/></g></g><g><g><path fill="#000000" d="M19.517,34.444c-4.108,0.221-7.042,5.227-3.425,8.265c3.126,2.625,8.088,0.325,8.302-3.657      c0.013-0.25-0.231-0.376-0.458-0.376c-1.412,0-2.824,0-4.236,0c0.153,0.125,0.305,0.251,0.458,0.376c0-1.412,0-2.825,0-4.237      c0-0.662-1.456-0.384-1.456,0.155c0,1.412,0,2.825,0,4.237c0,0.249,0.22,0.376,0.458,0.376c1.412,0,2.824,0,4.236,0      c-0.153-0.125-0.305-0.251-0.458-0.376c-0.174,3.236-3.862,5.066-6.12,2.296c-1.881-2.307-0.578-5.995,2.526-6.162      C20.101,35.301,20.515,34.39,19.517,34.444z"/></g></g><g><g><path fill="#000000" d="M19.569,34.071c0,1.412,0,2.825,0,4.237c0,0.378,0.349,0.49,0.674,0.49c1.412,0,2.824,0,4.236,0      c0.283,0,0.805-0.251,0.796-0.594c-0.071-2.617-2.092-4.651-4.722-4.722c-0.327-0.009-0.816,0.085-0.942,0.448      c-0.108,0.312,0.102,0.617,0.446,0.626c2.077,0.056,3.692,1.664,3.749,3.752c0.265-0.198,0.531-0.396,0.796-0.594      c-1.412,0-2.824,0-4.236,0c0.225,0.163,0.449,0.327,0.674,0.49c0-1.412,0-2.825,0-4.237      C21.039,33.198,19.569,33.403,19.569,34.071z"/></g></g><g><g><path fill="#000000" d="M19.717,45.515c-1.845,0.099-3.632,0.837-4.615,2.488c-1.071,1.796-0.732,4.16,0.817,5.569      c3.055,2.777,8.254,0.501,8.47-3.52c0.013-0.24-0.237-0.3-0.437-0.3c-1.412,0-2.824,0-4.236,0      c0.146,0.067,0.292,0.134,0.438,0.201c0-1.412,0-2.825,0-4.237c0-0.419-1.449-0.156-1.449,0.388c0,1.412,0,2.825,0,4.237      c0,0.17,0.336,0.201,0.438,0.201c1.412,0,2.824,0,4.236,0c-0.146-0.1-0.291-0.2-0.437-0.3c-0.168,3.122-3.662,5.115-5.983,2.464      c-1.854-2.118-1.077-6.226,2.184-6.402C19.659,46.278,20.683,45.463,19.717,45.515z"/></g></g><g><g><path fill="#000000" d="M19.574,45.109c0,1.412,0,2.825,0,4.237c0,0.252,0.219,0.401,0.464,0.401c1.412,0,2.824,0,4.236,0      c0.265,0,1.006-0.132,0.995-0.545c-0.071-2.617-2.09-4.568-4.7-4.638c-0.301-0.008-0.825,0.093-0.949,0.421      c-0.116,0.307,0.102,0.516,0.419,0.525c2.096,0.057,3.715,1.748,3.771,3.835c0.332-0.182,0.663-0.363,0.995-0.545      c-1.412,0-2.824,0-4.236,0c0.155,0.134,0.31,0.268,0.464,0.401c0-1.412,0-2.825,0-4.237      C21.033,44.277,19.574,44.54,19.574,45.109z"/></g></g><g><g><path fill="#000000" d="M27.42,37.724c6.898,0,13.796,0,20.694,0c0.47,0,1.562-0.704,0.595-0.704c-6.898,0-13.796,0-20.694,0      C27.546,37.02,26.453,37.724,27.42,37.724L27.42,37.724z"/></g></g><g><g><path fill="#000000" d="M27.446,41.296c6.898,0,13.796,0,20.694,0c0.592,0,1.52-0.895,0.544-0.895c-6.898,0-13.796,0-20.694,0      C27.397,40.401,26.469,41.296,27.446,41.296L27.446,41.296z"/></g></g><g><g><path fill="#000000" d="M27.655,48.523c6.898,0,13.796,0,20.694,0c0.832,0,1.108-1.075,0.125-1.075c-6.898,0-13.796,0-20.694,0      C26.948,47.448,26.672,48.523,27.655,48.523L27.655,48.523z"/></g></g><g><g><path fill="#000000" d="M27.432,51.859c6.898,0,13.796,0,20.694,0c0.527,0,1.544-0.794,0.571-0.794c-6.898,0-13.796,0-20.694,0      C27.476,51.065,26.459,51.859,27.432,51.859L27.432,51.859z"/></g></g><g><g><path fill="#000000" d="M35.72,22.447c0,1.063,0,2.126,0,3.188c0,0.783,1.471,0.589,1.471-0.097c0-1.063,0-2.126,0-3.188      C37.191,21.567,35.72,21.762,35.72,22.447L35.72,22.447z"/></g></g><g><g><path fill="#000000" d="M38.528,15.187c0,3.531,0,7.063,0,10.594c0,0.426,1.449,0.161,1.449-0.388c0-3.531,0-7.063,0-10.594      C39.977,14.373,38.528,14.638,38.528,15.187L38.528,15.187z"/></g></g><g><g><path fill="#000000" d="M41.323,9.694c0,5.325,0,10.651,0,15.976c0,0.637,1.453,0.347,1.453-0.166c0-5.325,0-10.651,0-15.976      C42.776,8.89,41.323,9.181,41.323,9.694L41.323,9.694z"/></g></g><g><g><path fill="#000000" d="M44.118,14.735c0,3.644,0,7.288,0,10.931c0,0.658,1.455,0.377,1.455-0.157c0-3.644,0-7.288,0-10.931      C45.574,13.92,44.118,14.2,44.118,14.735L44.118,14.735z"/></g></g><g><g><path fill="#000000" d="M46.911,19.863c0,1.929,0,3.858,0,5.786c0,0.73,1.464,0.494,1.464-0.124c0-1.929,0-3.858,0-5.786      C48.375,19.009,46.911,19.245,46.911,19.863L46.911,19.863z"/></g></g></g></g><g display="none"><circle display="inline" fill="#000000" cx="32" cy="32" r="32"/><polygon display="inline" fill="#000000" points="8.75,0.75 55.513,0.75 55.513,56.087 47.479,63.513 8.75,63.513  "/><polygon display="inline" fill="#000000" points="48.344,56.156 48.375,60.6 11.405,60.6 11.405,3.396 52.6,3.396 52.6,56.156  "/><path display="inline" d="M54.6,1.4v54.687L48.087,62.6H9.4V1.4H54.6 M56,0H8v64h40.667L56,56.667V0L56,0z"/><polygon display="inline" points="48.879,63.513 47.479,63.513 47.479,55.479 55.513,55.479 55.513,56.879 48.879,56.879  "/><path display="inline" fill="#000000" d="M22.106,10.334v7.621v1.4h1.4h7.621c-0.661,3.606-3.827,6.348-7.621,6.348   c-4.272,0-7.748-3.476-7.748-7.748C15.759,14.161,18.5,10.995,22.106,10.334 M23.506,8.807c-5.052,0-9.148,4.096-9.148,9.148   c0,5.052,4.096,9.148,9.148,9.148s9.148-4.096,9.148-9.148h-9.148V8.807L23.506,8.807z"/><path display="inline" fill="#000000" d="M25.883,9.357c3.152,0.578,5.643,3.069,6.221,6.221h-6.221V9.357 M24.483,7.83v9.148   h9.148C33.631,11.926,29.535,7.83,24.483,7.83L24.483,7.83z"/><path display="inline" fill="#000000" d="M20.389,34.919c-2.361,0-4.275,1.914-4.275,4.275c0,2.361,1.914,4.275,4.275,4.275   s4.275-1.914,4.275-4.275h-4.275V34.919z"/><path display="inline" fill="#000000" d="M21.271,34.037v4.275h4.275C25.546,35.951,23.632,34.037,21.271,34.037z"/><path display="inline" fill="#000000" d="M20.389,46.036c-2.361,0-4.275,1.914-4.275,4.275c0,2.361,1.914,4.275,4.275,4.275   s4.275-1.914,4.275-4.275h-4.275V46.036z"/><path display="inline" fill="#000000" d="M21.271,45.155v4.275h4.275C25.546,47.069,23.632,45.155,21.271,45.155z"/><rect x="28.754" y="36.721" display="inline" fill="#000000" width="20.888" height="1.4"/><rect x="28.754" y="40.229" display="inline" fill="#000000" width="20.888" height="1.4"/><rect x="28.754" y="47.43" display="inline" fill="#000000" width="20.888" height="1.4"/><rect x="28.754" y="50.938" display="inline" fill="#000000" width="20.888" height="1.4"/><rect x="36.874" y="22.312" display="inline" fill="#000000" width="1.4" height="3.217"/><rect x="39.696" y="14.84" display="inline" fill="#000000" width="1.4" height="10.689"/><rect x="42.519" y="9.409" display="inline" fill="#000000" width="1.4" height="16.121"/><rect x="45.343" y="14.5" display="inline" fill="#000000" width="1.4" height="11.03"/><rect x="48.166" y="19.691" display="inline" fill="#000000" width="1.4" height="5.838"/></g><text x="0" y="79" fill="#000000" font-size="3px" font-weight="bold" font-family="'Helvetica Neue', Helvetica, Arial-Unicode, Arial, Sans-serif">AlfredoCreates.com/icons &amp; Flaticondesign.com</text><text x="0" y="82" fill="#000000" font-size="3px" font-weight="bold" font-family="'Helvetica Neue', Helvetica, Arial-Unicode, Arial, Sans-serif">from the Noun Project</text></svg>