<svg xmlns="http://www.w3.org/2000/svg" xmlns:xlink="http://www.w3.org/1999/xlink" version="1.1" x="0px" y="0px" viewBox="0 0 100 125" style="enable-background:new 0 0 100 100;" xml:space="preserve"><g><path d="M84.647,62.52c1.104,0,2-0.896,2-2V36.705l2.684,2.315c0.378,0.326,0.843,0.486,1.306,0.486   c0.562,0,1.12-0.235,1.515-0.693c0.722-0.836,0.629-2.099-0.208-2.821L61.846,10.023c-0.751-0.648-1.862-0.647-2.613,0   L29.139,35.993c-0.836,0.722-0.929,1.984-0.207,2.821c0.722,0.835,1.984,0.929,2.821,0.207l2.689-2.32v20.82c0,1.104,0.896,2,2,2   s2-0.896,2-2V33.248L60.54,14.179l22.107,19.075V60.52C82.647,61.624,83.542,62.52,84.647,62.52z"/><path d="M60.542,64.266c11.216,0,20.341-9.125,20.341-20.341c0-4.435-1.402-8.65-4.056-12.19c-0.662-0.884-1.916-1.064-2.8-0.4   c-0.884,0.662-1.063,1.916-0.4,2.8c2.13,2.842,3.256,6.228,3.256,9.791c0,9.011-7.331,16.341-16.341,16.341   c-4.007,0-7.862-1.465-10.853-4.125c-0.826-0.734-2.09-0.661-2.824,0.166c-0.734,0.826-0.66,2.09,0.166,2.824   C50.756,62.442,55.554,64.266,60.542,64.266z"/><path d="M73.03,30.344c0.656-0.889,0.467-2.141-0.422-2.797c-3.514-2.593-7.687-3.964-12.066-3.964   c-11.216,0-20.341,9.125-20.341,20.341c0,3.771,1.041,7.456,3.01,10.653c0.378,0.614,1.034,0.952,1.705,0.952   c0.357,0,0.72-0.096,1.046-0.297c0.941-0.579,1.234-1.811,0.655-2.751c-1.581-2.567-2.416-5.526-2.416-8.557   c0-9.011,7.331-16.341,16.341-16.341c3.519,0,6.87,1.101,9.691,3.183C71.122,31.422,72.375,31.233,73.03,30.344z"/><path d="M9.707,88.562h17.127c2.595,0,4.707-2.111,4.707-4.707v-0.026l16.39,5.428c2.447,0.811,4.969,1.213,7.484,1.213   c3.502,0,6.992-0.781,10.241-2.331l25.632-12.537c1.589-0.777,2.78-2.127,3.353-3.8c0.574-1.673,0.461-3.47-0.317-5.059   c-1.603-3.273-5.573-4.636-8.847-3.038L70.833,70.85c-0.722-2.991-3.414-5.222-6.623-5.222H53.967l-3.62-1.931   c-3.435-1.832-7.308-2.8-11.2-2.8h-7.606v-0.115c0-2.595-2.111-4.707-4.707-4.707H9.707C7.111,56.076,5,58.187,5,60.782v23.073   C5,86.451,7.111,88.562,9.707,88.562z M9,60.782c0-0.39,0.317-0.707,0.707-0.707h17.127c0.39,0,0.707,0.317,0.707,0.707V72.75   c0,1.104,0.896,2,2,2s2-0.896,2-2v-7.853h7.606c3.238,0,6.46,0.806,9.317,2.329l4.065,2.168c0.023,0.012,0.048,0.016,0.072,0.028   c0.089,0.043,0.183,0.077,0.279,0.107c0.052,0.016,0.103,0.037,0.156,0.048c0.095,0.021,0.193,0.029,0.293,0.036   c0.047,0.003,0.093,0.017,0.14,0.017c0.007,0,0.014-0.003,0.022-0.003H64.21c1.555,0,2.82,1.265,2.82,2.828   c0,1.555-1.265,2.82-2.82,2.82H49.209c-1.104,0-2,0.896-2,2s0.896,2,2,2H64.21c2.635,0,4.92-1.504,6.056-3.699l16.965-8.276   c1.293-0.632,2.865-0.094,3.501,1.203c0.308,0.629,0.353,1.339,0.125,2.002c-0.227,0.662-0.698,1.196-1.327,1.504L63.917,84.537   c-4.628,2.207-9.86,2.535-14.728,0.923l-17.648-5.844v-1.449c0-1.104-0.896-2-2-2s-2,0.896-2,2v5.688   c0,0.39-0.317,0.707-0.707,0.707H9.707C9.317,84.562,9,84.245,9,83.855V60.782z"/><path d="M47.259,46.848c0,1.381,1.119,2.5,2.5,2.5h2.337c1.481,4.874,4.92,8.214,9.025,8.214c3.039,0,5.839-1.852,7.684-5.08   c0.685-1.199,0.269-2.726-0.93-3.411c-1.199-0.686-2.727-0.269-3.411,0.93c-0.93,1.627-2.148,2.561-3.343,2.561   c-1.323,0-2.73-1.207-3.679-3.214h2.37c1.381,0,2.5-1.119,2.5-2.5s-1.119-2.5-2.5-2.5h-3.485c-0.004-0.141-0.013-0.279-0.013-0.423   c0-0.144,0.009-0.282,0.013-0.424h3.485c1.381,0,2.5-1.119,2.5-2.5s-1.119-2.5-2.5-2.5h-2.37c0.948-2.007,2.356-3.214,3.679-3.214   c1.195,0,2.412,0.936,3.34,2.567c0.682,1.2,2.208,1.62,3.409,0.938c1.2-0.683,1.62-2.209,0.938-3.409   c-1.842-3.238-4.643-5.096-7.687-5.096c-4.105,0-7.544,3.34-9.025,8.214h-2.337c-1.381,0-2.5,1.119-2.5,2.5s1.119,2.5,2.5,2.5h1.57   c-0.003,0.142-0.015,0.281-0.015,0.424c0,0.143,0.012,0.281,0.015,0.423h-1.57C48.378,44.348,47.259,45.467,47.259,46.848z"/></g><text x="0" y="115" fill="#000000" font-size="5px" font-weight="bold" font-family="'Helvetica Neue', Helvetica, Arial-Unicode, Arial, Sans-serif">Created by Maxim Kulikov</text><text x="0" y="120" fill="#000000" font-size="5px" font-weight="bold" font-family="'Helvetica Neue', Helvetica, Arial-Unicode, Arial, Sans-serif">from the Noun Project</text></svg>