<?xml version="1.0" encoding="utf-8"?>
<!-- Generator: Adobe Illustrator 22.1.0, SVG Export Plug-In . SVG Version: 6.00 Build 0)  -->
<svg version="1.1" id="Calque_1" xmlns="http://www.w3.org/2000/svg" xmlns:xlink="http://www.w3.org/1999/xlink" x="0px" y="0px"
	 viewBox="0 0 23.7 22.7" style="enable-background:new 0 0 23.7 22.7;" xml:space="preserve">
<path d="M23.2,21.7H22v-6.8c0-0.2-0.1-0.4-0.3-0.5l-0.4-0.2c0,0,0,0,0,0v-1c1.3-0.3,2.2-2,2.2-4c0-1.8-0.9-6-2.7-6S18,7.6,18,9.4
	c0,2,0.9,3.6,2.2,4v0.6l-3.1-1.3V0.5c0-0.2-0.1-0.3-0.2-0.4C16.8,0,16.6,0,16.5,0L7.9,2.6C7.7,2.7,7.5,2.9,7.5,3.1v5.4H2.7
	c-0.3,0-0.5,0.2-0.5,0.5v12.6H1c-0.3,0-0.5,0.2-0.5,0.5s0.2,0.5,0.5,0.5h1.7h2.7h3.1h2.7h5.5h4.9h1.8c0.3,0,0.5-0.2,0.5-0.5
	S23.5,21.7,23.2,21.7z M19,9.4c0-2.2,1.1-5,1.7-5s1.7,2.9,1.7,5c0,1.3-0.5,2.5-1.2,2.9v-0.7c0-0.3-0.2-0.5-0.5-0.5s-0.5,0.2-0.5,0.5
	v0.7C19.5,11.9,19,10.7,19,9.4z M8.5,3.5l7.6-2.3v11.8v8.8h-1.8v-3.3c0-0.3-0.2-0.5-0.5-0.5h-1.1c-0.3,0-0.5,0.2-0.5,0.5
	s0.2,0.5,0.5,0.5h0.6v2.8h-1.8V9.1c0-0.3-0.2-0.5-0.5-0.5H8.5V3.5z M3.2,9.6H8c0,0,0,0,0,0s0,0,0,0h2.6v12.1H8.9v-3.3
	c0-0.3-0.2-0.5-0.5-0.5H5.4c-0.3,0-0.5,0.2-0.5,0.5v3.3H3.2V9.6z M5.9,21.7v-2.8h2.1v2.8H5.9z M17.1,13.7l3.9,1.6v6.4h-3.9V13.7z"/>
<path d="M1.9,7.1h3.4C6.2,7.1,7,6.3,7,5.4C7,4.8,6.6,4.2,6.1,4c0-0.2,0-0.3,0-0.5c0-1.4-1.2-2.6-2.6-2.6S0.9,2,0.9,3.5
	c0,0,0,0.1,0,0.1C0.3,3.9,0,4.5,0,5.2C0,6.2,0.8,7.1,1.9,7.1z M1.6,4.4C1.8,4.3,2,4.1,1.9,3.8c0-0.1,0-0.2,0-0.3
	c0-0.9,0.7-1.6,1.6-1.6c0.9,0,1.6,0.7,1.6,1.6c0,0.2,0,0.4-0.1,0.6c-0.1,0.1,0,0.3,0,0.4c0.1,0.1,0.2,0.2,0.4,0.2
	C5.7,4.8,6,5.1,6,5.4c0,0.4-0.3,0.7-0.7,0.7H1.9C1.4,6.1,1,5.7,1,5.2C1,4.8,1.2,4.5,1.6,4.4z"/>
</svg>
