<svg xmlns="http://www.w3.org/2000/svg" data-name="Layer 1" viewBox="0 0 512 640" x="0px" y="0px"><title>p</title><path d="M401.42,0H110.58C49.76,0,0,49.76,0,110.58V401.42C0,462.24,49.76,512,110.58,512H401.42C462.24,512,512,462.24,512,401.42V110.58C512,49.76,462.24,0,401.42,0ZM232.35,104.65a23.65,23.65,0,1,1,47.3,0v165.7a23.65,23.65,0,0,1-47.3,0V104.65Zm145.1,276a171.76,171.76,0,1,1-234-251.18,23.65,23.65,0,0,1,31,35.71,124.46,124.46,0,1,0,162.37-.65,23.65,23.65,0,0,1,30.73-36A171.76,171.76,0,0,1,377.45,380.69Z"/><text x="0" y="527" fill="#000000" font-size="5px" font-weight="bold" font-family="'Helvetica Neue', Helvetica, Arial-Unicode, Arial, Sans-serif">Created by i cons</text><text x="0" y="532" fill="#000000" font-size="5px" font-weight="bold" font-family="'Helvetica Neue', Helvetica, Arial-Unicode, Arial, Sans-serif">from the Noun Project</text></svg>