<svg xmlns="http://www.w3.org/2000/svg" xmlns:xlink="http://www.w3.org/1999/xlink" version="1.1" x="0px" y="0px" viewBox="0 0 24 30" enable-background="new 0 0 24 24" xml:space="preserve"><g><path d="M23.313,22.188h-1.25v-6.75c0-0.203-0.122-0.386-0.311-0.463l-0.441-0.181c0-0.004,0.002-0.007,0.002-0.011v-0.952   c1.277-0.34,2.219-1.953,2.219-3.958c0-1.804-0.925-6.031-2.719-6.031s-2.719,4.228-2.719,6.031c0,2.005,0.941,3.619,2.219,3.958   v0.553l-3.125-1.281V1c0-0.159-0.075-0.308-0.203-0.402c-0.127-0.094-0.291-0.122-0.443-0.076L7.979,3.147   c-0.21,0.064-0.354,0.258-0.354,0.478v5.438H2.75c-0.276,0-0.5,0.224-0.5,0.5v12.625H1.063c-0.276,0-0.5,0.224-0.5,0.5   s0.224,0.5,0.5,0.5H2.75h2.688H8.5h2.688h5.5h4.875h1.75c0.276,0,0.5-0.224,0.5-0.5S23.589,22.188,23.313,22.188z M19.094,9.873   c0-2.172,1.081-5.031,1.719-5.031s1.719,2.859,1.719,5.031c0,1.336-0.523,2.489-1.219,2.879v-0.727c0-0.276-0.224-0.5-0.5-0.5   s-0.5,0.224-0.5,0.5v0.727C19.617,12.362,19.094,11.208,19.094,9.873z M8.625,3.995l7.563-2.318v11.761v8.75h-1.75v-3.25   c0-0.276-0.224-0.5-0.5-0.5h-1.063c-0.276,0-0.5,0.224-0.5,0.5s0.224,0.5,0.5,0.5h0.563v2.75h-1.75V9.563   c0-0.276-0.224-0.5-0.5-0.5H8.625V3.995z M3.25,10.063h4.87c0.002,0,0.003,0.001,0.005,0.001s0.003-0.001,0.005-0.001h2.558v12.125   H9v-3.25c0-0.276-0.224-0.5-0.5-0.5H5.438c-0.276,0-0.5,0.224-0.5,0.5v3.25H3.25V10.063z M5.938,22.188v-2.75H8v2.75H5.938z    M17.188,14.183l3.875,1.59v6.415h-3.875V14.183z"/><path d="M1.958,7.583h3.438c0.913,0,1.656-0.743,1.656-1.656c0-0.632-0.366-1.188-0.91-1.46c0.03-0.159,0.045-0.322,0.045-0.487   c0-1.436-1.168-2.604-2.604-2.604S0.979,2.543,0.979,3.979c0,0.044,0.001,0.089,0.003,0.134C0.432,4.448,0.083,5.047,0.083,5.708   C0.083,6.742,0.925,7.583,1.958,7.583z M1.683,4.884c0.241-0.081,0.383-0.329,0.331-0.577C1.991,4.199,1.979,4.089,1.979,3.979   c0-0.885,0.72-1.604,1.604-1.604c0.885,0,1.604,0.72,1.604,1.604c0,0.216-0.042,0.426-0.125,0.623   C5.001,4.747,5.012,4.913,5.091,5.049C5.17,5.185,5.31,5.276,5.466,5.293c0.339,0.039,0.586,0.306,0.586,0.634   c0,0.362-0.294,0.656-0.656,0.656H1.958c-0.482,0-0.875-0.393-0.875-0.875C1.083,5.335,1.325,5.004,1.683,4.884z"/></g><text x="0" y="39" fill="#000000" font-size="5px" font-weight="bold" font-family="'Helvetica Neue', Helvetica, Arial-Unicode, Arial, Sans-serif">Created by Lee</text><text x="0" y="44" fill="#000000" font-size="5px" font-weight="bold" font-family="'Helvetica Neue', Helvetica, Arial-Unicode, Arial, Sans-serif">from the Noun Project</text></svg>