<svg xmlns="http://www.w3.org/2000/svg" xmlns:xlink="http://www.w3.org/1999/xlink" version="1.1" x="0px" y="0px" viewBox="0 0 100 125" style="enable-background:new 0 0 100 100;" xml:space="preserve"><g><rect x="49.1" y="38.5" width="1.1" height="29.5"/><rect x="39" y="38.5" width="1.1" height="29.5"/><rect x="59.2" y="38.5" width="1.1" height="29.5"/><path d="M50,1C22.9,1,1,22.9,1,50s21.9,49,49,49s49-21.9,49-49S77.1,1,50,1z M66.6,67.4c0,5.4-4.4,9.8-9.8,9.8H42.5   c-5.4,0-9.8-4.4-9.8-9.8V33.2h33.9V67.4z M70,31.6H29.6v-3.2h11c0.3-3.1,2.9-5.5,6-5.5H53c3.2,0,5.8,2.4,6,5.5h11V31.6z"/></g><text x="0" y="115" fill="#000000" font-size="5px" font-weight="bold" font-family="'Helvetica Neue', Helvetica, Arial-Unicode, Arial, Sans-serif">Created by Nathan Newell Griffith</text><text x="0" y="120" fill="#000000" font-size="5px" font-weight="bold" font-family="'Helvetica Neue', Helvetica, Arial-Unicode, Arial, Sans-serif">from the Noun Project</text></svg>