<svg xmlns:dc="http://purl.org/dc/elements/1.1/" xmlns:cc="http://creativecommons.org/ns#" xmlns:rdf="http://www.w3.org/1999/02/22-rdf-syntax-ns#" xmlns:svg="http://www.w3.org/2000/svg" xmlns="http://www.w3.org/2000/svg" xmlns:sodipodi="http://sodipodi.sourceforge.net/DTD/sodipodi-0.dtd" xmlns:inkscape="http://www.inkscape.org/namespaces/inkscape" version="1.1" x="0px" y="0px" viewBox="0 0 100 125"><g transform="translate(0,-952.36218)"><path style="text-indent:0;text-transform:none;direction:ltr;block-progression:tb;baseline-shift:baseline;color:#000000;enable-background:accumulate;" d="m 36.001701,957.36205 c -13.7716,0 -25,11.22842 -25,25 0,13.77162 11.2284,25.00005 25,25.00005 1.8206,0 3.6009,-0.1901 5.3125,-0.5625 l -30.3125,30.3125 0,-10.75 c 0.033,-1.6019 -1.4289999,-3.0794 -3.0311999,-3.0625 -1.5814,0.016 -3.0017,1.4814 -2.9688,3.0625 l 0,18 c 10e-5,1.5707 1.4292,2.9998 3,3 l 17.9999999,0 c 1.5849,0.022 3.0312,-1.4149 3.0312,-3 0,-1.5851 -1.4463,-3.0224 -3.0312,-3 l -10.7812,0 28.7812,-28.7813 11.1562,11.1563 c 0.4133,0.8836 1.2868,1.5341 2.25,1.6875 0.9635,0.1534 1.989,-0.1947 2.6563,-0.9063 l 33.999999,-32 c 0.9171,-0.84795 1.1861,-2.37739 0.6875,-3.4375 -0.5316,-1.13023 -1.7888,-1.87773 -3.0312,-1.75 -0.6657,0.0719 -1.304,0.37436 -1.7813,0.84375 l -31.874999,30.00005 -11.5625,-11.5625 c -0.3122,-0.4491 -0.7498,-0.8101 -1.25,-1.0313 9.2171,-3.688 15.75,-12.71007 15.75,-23.21875 0,-13.77158 -11.2284,-25 -25,-25 z m 0,6 c 10.5289,0 19,8.47106 19,19 0,10.52894 -8.4711,19.00005 -19,19.00005 -10.5289,0 -19,-8.47111 -19,-19.00005 0,-10.52894 8.4711,-19 19,-19 z m 1.7188,4 c -6.3869,0 -11.8134,4.2039 -13.8438,10 l -2.875,0 c -1.1037,0 -2,0.8955 -2,2 0,1.1046 0.8963,2 2,2 l 2.0312,0 c -0.023,0.3376 -0.031,0.657 -0.031,1 0,0.3361 0.01,0.6693 0.031,1 l -2.0312,0 c -1.1037,0 -2,0.8955 -2,2 0,1.1046 0.8963,2 2,2 l 2.8438,0 c 2.0199,5.8158 7.4741,10.00002 13.875,10.00002 4.5966,0 7.9239,-1.79252 10.6874,-4.62502 a 1.9994102,2.0007572 0 1 0 -2.875,-2.78125 c -2.3099,2.3675 -4.115,3.40625 -7.8124,3.40625 -4.1689,0 -7.7932,-2.4193 -9.5626,-6 l 8.8438,0 c 1.1039,0 2,-0.8954 2,-2 0,-1.1045 -0.8961,-2 -2,-2 l -9.9375,0 c -0.027,-0.3232 -0.062,-0.6688 -0.062,-1 0,-0.3403 0.034,-0.668 0.062,-1 l 9.9375,0 c 1.1039,0 2,-0.8954 2,-2 0,-1.1045 -0.8961,-2 -2,-2 l -8.8438,0 c 1.774,-3.5666 5.4035,-6 9.5626,-6 3.6975,0 5.5024,1.0075 7.8124,3.375 a 1.9994102,2.0007572 0 1 0 2.875,-2.78125 c -2.7635,-2.8325 -6.0909,-4.59375 -10.6874,-4.59375 z" fill="#000000" fill-opacity="1" stroke="none" marker="none" visibility="visible" display="inline" overflow="visible"/></g><text x="0" y="115" fill="#000000" font-size="5px" font-weight="bold" font-family="'Helvetica Neue', Helvetica, Arial-Unicode, Arial, Sans-serif">Created by Rockicon</text><text x="0" y="120" fill="#000000" font-size="5px" font-weight="bold" font-family="'Helvetica Neue', Helvetica, Arial-Unicode, Arial, Sans-serif">from the Noun Project</text></svg>