<svg xmlns="http://www.w3.org/2000/svg" xmlns:xlink="http://www.w3.org/1999/xlink" xml:space="preserve" style="shape-rendering:geometricPrecision;text-rendering:geometricPrecision;image-rendering:optimizeQuality;" viewBox="0 0 2048 2560" x="0px" y="0px" fill-rule="evenodd" clip-rule="evenodd"><defs><style type="text/css">
   
    .fil1 {fill:none}
    .fil0 {fill:black;fill-rule:nonzero}
   
  </style></defs><g><g><path class="fil0" d="M517.634 255.999l1012.73 0c26.1685,0 49.9418,10.6878 67.1611,27.9071 17.2193,17.2193 27.9071,40.9926 27.9071,67.1611l0 1345.87c0,26.1685 -10.6878,49.9406 -27.9071,67.1599 -17.2193,17.2193 -40.9926,27.9071 -67.1611,27.9071l-1012.73 0c-26.1685,0 -49.9418,-10.6878 -67.1611,-27.9071 -17.2193,-17.2193 -27.9071,-40.9914 -27.9071,-67.1599l0 -1345.87c0,-26.1685 10.6878,-49.9418 27.9071,-67.1611 17.2193,-17.2193 40.9926,-27.9071 67.1611,-27.9071zm1012.73 48l-1012.73 0c-12.9177,0 -24.6815,5.30315 -33.2233,13.8449 -8.54174,8.54174 -13.8449,20.3055 -13.8449,33.2233l0 1345.87c0,12.9177 5.30315,24.6803 13.8449,33.2221 8.54174,8.54174 20.3055,13.8449 33.2233,13.8449l1012.73 0c12.9177,0 24.6815,-5.30315 33.2233,-13.8449 8.54174,-8.54174 13.8449,-20.3043 13.8449,-33.2221l0 -1345.87c0,-12.9177 -5.30315,-24.6815 -13.8449,-33.2233 -8.54174,-8.54174 -20.3055,-13.8449 -33.2233,-13.8449z"/><path class="fil0" d="M681.778 1337.06c-13.2543,0 -24,-10.7457 -24,-24 0,-13.2543 10.7457,-24 24,-24l666.271 0c13.2543,0 24,10.7457 24,24 0,13.2543 -10.7457,24 -24,24l-666.271 0z"/><path class="fil0" d="M681.778 1481.42c-13.2543,0 -24,-10.7457 -24,-24 0,-13.2543 10.7457,-24 24,-24l666.271 0c13.2543,0 24,10.7457 24,24 0,13.2543 -10.7457,24 -24,24l-666.271 0z"/><path class="fil0" d="M681.778 1625.78c-13.2543,0 -24,-10.7457 -24,-24 0,-13.2543 10.7457,-24 24,-24l666.271 0c13.2543,0 24,10.7457 24,24 0,13.2543 -10.7457,24 -24,24l-666.271 0z"/><path class="fil0" d="M786.145 769.815l231.832 -222.895c9.33426,-8.97875 24.0709,-8.87599 33.2811,0.0933072l0.00944883 0.00944883 0.144095 0.13937 229.314 222.747 0.154725 0.153543 6.99449 6.26103c5.27363,4.71851 7.95945,11.2512 7.96182,17.8122l0.100394 0 0 329.996c0,13.2543 -10.7457,24 -24,24l-474.692 0c-13.2543,0 -24,-10.7457 -24,-24l0 -331.78c0,-7.42678 3.37323,-14.0658 8.67166,-18.4665l4.22953 -4.0689zm248.341 -172.361l-213.242 205.022 0 297.655 426.692 0 0 -295.36c-0.197244,-0.179528 -0.394488,-0.361418 -0.587008,-0.549213l-212.863 -206.767z"/><path class="fil0" d="M972.222 899.481l124.736 0c13.2543,0 24,10.7457 24,24l0 200.966c0,13.2543 -10.7457,24 -24,24l-124.736 0c-13.2543,0 -24,-10.7457 -24,-24l0 -200.966c0,-13.2543 10.7457,-24 24,-24zm100.736 48l-76.7363 0 0 152.966 76.7363 0 0 -152.966z"/><path class="fil0" d="M719.456 778.484c-9.57757,9.11221 -24.7311,8.73426 -33.8433,-0.843308 -9.11221,-9.57757 -8.73426,-24.7311 0.843308,-33.8433l331.634 -314.925c9.2882,-8.83701 23.8193,-8.74725 33,0l331.634 314.925c9.57757,9.11221 9.95552,24.2658 0.843308,33.8433 -9.11221,9.57757 -24.2658,9.95552 -33.8433,0.843308l-315.134 -299.256 -315.134 299.256z"/></g></g><rect class="fil1" width="2048" height="2048"/><text x="0" y="2063" fill="#000000" font-size="5px" font-weight="bold" font-family="'Helvetica Neue', Helvetica, Arial-Unicode, Arial, Sans-serif">Created by IYIKON</text><text x="0" y="2068" fill="#000000" font-size="5px" font-weight="bold" font-family="'Helvetica Neue', Helvetica, Arial-Unicode, Arial, Sans-serif">from the Noun Project</text></svg>