<svg xmlns="http://www.w3.org/2000/svg" xmlns:xlink="http://www.w3.org/1999/xlink" viewBox="0 0 78 97.5" version="1.1" x="0px" y="0px"><title>pencil</title><desc>Created with Sketch.</desc><g stroke="none" stroke-width="1" fill="none" fill-rule="evenodd"><g transform="translate(-520.000000, -18.000000)"><g transform="translate(520.000000, 18.000000)"><path d="M0,39 C0,17.4608948 17.4561589,0 39,0 C60.5391052,0 78,17.4561589 78,39 C78,60.5391052 60.5438411,78 39,78 C17.4608948,78 0,60.5438411 0,39 Z M19.0130348,59.1944449 L21.4169311,43.4005851 L45.7075643,19.1099519 C47.6619513,17.1555649 50.8224447,17.1473709 52.7781084,19.1030346 L59.2239713,25.5488974 C61.174538,27.4994641 61.1673056,30.6663785 59.2173993,32.6128336 L34.7054222,57.0814263 L19.0130348,59.1944449 Z" fill="#000000"/><path d="M38.5,23.5 L60,45" stroke="#000000" stroke-width="6" stroke-linecap="square"/></g></g></g><text x="0" y="93" fill="#000000" font-size="5px" font-weight="bold" font-family="'Helvetica Neue', Helvetica, Arial-Unicode, Arial, Sans-serif">Created by Kevin</text><text x="0" y="98" fill="#000000" font-size="5px" font-weight="bold" font-family="'Helvetica Neue', Helvetica, Arial-Unicode, Arial, Sans-serif">from the Noun Project</text></svg>